<mxfile host="65bd71144e" scale="2" border="0">
    <diagram id="y3lX9eNrz7e-Z_JS-NOT" name="第 1 页">
        <mxGraphModel dx="948" dy="539" grid="1" gridSize="10" guides="1" tooltips="1" connect="1" arrows="1" fold="1" page="1" pageScale="1" pageWidth="827" pageHeight="1169" math="1" shadow="0">
            <root>
                <mxCell id="0"/>
                <mxCell id="1" parent="0"/>
                <mxCell id="TLOZ-Fmwr8OnzwcKuDfj-99" value="" style="rounded=1;whiteSpace=wrap;html=1;shadow=0;glass=0;dashed=1;sketch=0;fontFamily=Times New Roman;fontSize=16;fillColor=#fff2cc;strokeColor=#d6b656;" parent="1" vertex="1">
                    <mxGeometry x="124" y="340" width="260" height="220" as="geometry"/>
                </mxCell>
                <mxCell id="TLOZ-Fmwr8OnzwcKuDfj-39" value="" style="rounded=1;whiteSpace=wrap;html=1;fillColor=#d5e8d4;dashed=1;fontSize=16;fontFamily=Times New Roman;fontStyle=0;strokeColor=#82b366;" parent="1" vertex="1">
                    <mxGeometry x="405" y="340" width="345" height="105" as="geometry"/>
                </mxCell>
                <mxCell id="TLOZ-Fmwr8OnzwcKuDfj-21" value="" style="edgeStyle=orthogonalEdgeStyle;rounded=0;orthogonalLoop=1;jettySize=auto;html=1;fontSize=16;fontFamily=Times New Roman;fontStyle=0" parent="1" source="TLOZ-Fmwr8OnzwcKuDfj-3" target="TLOZ-Fmwr8OnzwcKuDfj-20" edge="1">
                    <mxGeometry relative="1" as="geometry"/>
                </mxCell>
                <mxCell id="TLOZ-Fmwr8OnzwcKuDfj-3" value="Model&lt;br style=&quot;font-size: 16px;&quot;&gt;Predictive&lt;br style=&quot;font-size: 16px;&quot;&gt;Controller" style="rounded=1;whiteSpace=wrap;html=1;fontSize=16;fontFamily=Times New Roman;fontStyle=1;fillColor=none;" parent="1" vertex="1">
                    <mxGeometry x="425" y="365" width="120" height="60" as="geometry"/>
                </mxCell>
                <mxCell id="TLOZ-Fmwr8OnzwcKuDfj-91" style="edgeStyle=orthogonalEdgeStyle;rounded=0;orthogonalLoop=1;jettySize=auto;html=1;exitX=0;exitY=0.5;exitDx=0;exitDy=0;entryX=1;entryY=0.5;entryDx=0;entryDy=0;fontFamily=Times New Roman;fontSize=16;startArrow=none;startFill=0;" parent="1" target="TLOZ-Fmwr8OnzwcKuDfj-27" edge="1">
                    <mxGeometry relative="1" as="geometry">
                        <mxPoint x="587.5" y="500" as="sourcePoint"/>
                    </mxGeometry>
                </mxCell>
                <mxCell id="TLOZ-Fmwr8OnzwcKuDfj-92" style="edgeStyle=orthogonalEdgeStyle;rounded=0;orthogonalLoop=1;jettySize=auto;html=1;exitX=0;exitY=0.75;exitDx=0;exitDy=0;entryX=1;entryY=0.75;entryDx=0;entryDy=0;fontFamily=Times New Roman;fontSize=16;startArrow=none;startFill=0;" parent="1" target="TLOZ-Fmwr8OnzwcKuDfj-27" edge="1">
                    <mxGeometry relative="1" as="geometry">
                        <mxPoint x="507.5" y="515" as="sourcePoint"/>
                    </mxGeometry>
                </mxCell>
                <mxCell id="TLOZ-Fmwr8OnzwcKuDfj-93" style="edgeStyle=orthogonalEdgeStyle;orthogonalLoop=1;jettySize=auto;html=1;exitX=0;exitY=0.75;exitDx=0;exitDy=0;entryX=0;entryY=0.75;entryDx=0;entryDy=0;fontFamily=Times New Roman;fontSize=16;startArrow=none;startFill=0;jumpStyle=arc;sketch=0;jumpSize=6;rounded=0;" parent="1" target="TLOZ-Fmwr8OnzwcKuDfj-3" edge="1" source="TLOZ-Fmwr8OnzwcKuDfj-4">
                    <mxGeometry relative="1" as="geometry">
                        <mxPoint x="517.5" y="515" as="sourcePoint"/>
                        <mxPoint x="415" y="409.9999999999999" as="targetPoint"/>
                        <Array as="points">
                            <mxPoint x="400" y="515"/>
                            <mxPoint x="400" y="410"/>
                        </Array>
                    </mxGeometry>
                </mxCell>
                <mxCell id="TLOZ-Fmwr8OnzwcKuDfj-96" style="edgeStyle=orthogonalEdgeStyle;rounded=0;sketch=0;jumpStyle=none;jumpSize=6;orthogonalLoop=1;jettySize=auto;html=1;fontFamily=Times New Roman;fontSize=16;startArrow=none;startFill=0;fillColor=none;entryX=0;entryY=0.75;entryDx=0;entryDy=0;exitX=0;exitY=0.75;exitDx=0;exitDy=0;" parent="1" target="TLOZ-Fmwr8OnzwcKuDfj-6" edge="1">
                    <mxGeometry relative="1" as="geometry">
                        <mxPoint x="400" y="550" as="targetPoint"/>
                        <mxPoint x="517.5" y="515" as="sourcePoint"/>
                        <Array as="points">
                            <mxPoint x="400" y="515"/>
                            <mxPoint x="400" y="540"/>
                            <mxPoint x="140" y="540"/>
                            <mxPoint x="140" y="410"/>
                        </Array>
                    </mxGeometry>
                </mxCell>
                <mxCell id="TLOZ-Fmwr8OnzwcKuDfj-4" value="Robot&lt;br&gt;Dynamics" style="rounded=1;whiteSpace=wrap;html=1;fontSize=16;fontFamily=Times New Roman;fontStyle=1;fillColor=#f8cecc;strokeColor=#b85450;" parent="1" vertex="1">
                    <mxGeometry x="527.5" y="470" width="120" height="60" as="geometry"/>
                </mxCell>
                <mxCell id="16" style="edgeStyle=none;html=1;entryX=0;entryY=0.5;entryDx=0;entryDy=0;fontFamily=Times New Roman;fontSize=16;startArrow=none;exitX=1;exitY=0.5;exitDx=0;exitDy=0;" edge="1" parent="1" source="TLOZ-Fmwr8OnzwcKuDfj-6" target="TLOZ-Fmwr8OnzwcKuDfj-3">
                    <mxGeometry relative="1" as="geometry">
                        <mxPoint x="373.99999999997976" y="395" as="sourcePoint"/>
                    </mxGeometry>
                </mxCell>
                <mxCell id="TLOZ-Fmwr8OnzwcKuDfj-6" value="NN Policy" style="rounded=1;whiteSpace=wrap;html=1;fontSize=16;fontFamily=Times New Roman;fontStyle=1;fillColor=none;" parent="1" vertex="1">
                    <mxGeometry x="155" y="365" width="120" height="60" as="geometry"/>
                </mxCell>
                <mxCell id="TLOZ-Fmwr8OnzwcKuDfj-17" value="Reaction&lt;br style=&quot;font-size: 16px;&quot;&gt;Force" style="text;html=1;align=center;verticalAlign=middle;resizable=0;points=[];autosize=1;strokeColor=none;fontSize=16;fontFamily=Times New Roman;fontStyle=0" parent="1" vertex="1">
                    <mxGeometry x="545" y="375" width="70" height="40" as="geometry"/>
                </mxCell>
                <mxCell id="TLOZ-Fmwr8OnzwcKuDfj-81" style="edgeStyle=orthogonalEdgeStyle;rounded=0;orthogonalLoop=1;jettySize=auto;html=1;exitX=1;exitY=0.5;exitDx=0;exitDy=0;entryX=1;entryY=0.5;entryDx=0;entryDy=0;fontFamily=Times New Roman;fontSize=16;startArrow=none;startFill=0;" parent="1" source="TLOZ-Fmwr8OnzwcKuDfj-20" target="TLOZ-Fmwr8OnzwcKuDfj-4" edge="1">
                    <mxGeometry relative="1" as="geometry">
                        <Array as="points">
                            <mxPoint x="760" y="395"/>
                            <mxPoint x="760" y="500"/>
                        </Array>
                    </mxGeometry>
                </mxCell>
                <mxCell id="TLOZ-Fmwr8OnzwcKuDfj-20" value="Joint PD&lt;br style=&quot;font-size: 16px&quot;&gt;Controller" style="rounded=1;whiteSpace=wrap;html=1;fontSize=16;fontFamily=Times New Roman;fontStyle=1;fillColor=none;" parent="1" vertex="1">
                    <mxGeometry x="620" y="365" width="120" height="60" as="geometry"/>
                </mxCell>
                <mxCell id="TLOZ-Fmwr8OnzwcKuDfj-23" value="Joint&lt;br style=&quot;font-size: 16px&quot;&gt;Torque" style="text;html=1;align=right;verticalAlign=middle;resizable=0;points=[];autosize=1;strokeColor=none;fontSize=16;fontFamily=Times New Roman;fontStyle=0" parent="1" vertex="1">
                    <mxGeometry x="690" y="460" width="60" height="40" as="geometry"/>
                </mxCell>
                <mxCell id="TLOZ-Fmwr8OnzwcKuDfj-28" value="" style="edgeStyle=orthogonalEdgeStyle;rounded=0;orthogonalLoop=1;jettySize=auto;html=1;startArrow=none;startFill=0;fontSize=16;fontFamily=Times New Roman;fontStyle=0" parent="1" source="TLOZ-Fmwr8OnzwcKuDfj-27" target="TLOZ-Fmwr8OnzwcKuDfj-6" edge="1">
                    <mxGeometry relative="1" as="geometry"/>
                </mxCell>
                <mxCell id="TLOZ-Fmwr8OnzwcKuDfj-27" value="RL Algorithm" style="rounded=1;whiteSpace=wrap;html=1;fontSize=16;fontFamily=Times New Roman;fontStyle=1;fillColor=none;" parent="1" vertex="1">
                    <mxGeometry x="155" y="470" width="120" height="60" as="geometry"/>
                </mxCell>
                <mxCell id="TLOZ-Fmwr8OnzwcKuDfj-40" value="Tracking" style="text;html=1;align=center;verticalAlign=middle;resizable=0;points=[];autosize=1;strokeColor=none;fontSize=16;fontFamily=Times New Roman;fontStyle=0" parent="1" vertex="1">
                    <mxGeometry x="414" y="340" width="70" height="20" as="geometry"/>
                </mxCell>
                <mxCell id="TLOZ-Fmwr8OnzwcKuDfj-45" value="Reference&lt;br&gt;Trajectory" style="text;html=1;align=center;verticalAlign=middle;resizable=0;points=[];autosize=1;strokeColor=none;fontSize=16;fontFamily=Times New Roman;fontStyle=0" parent="1" vertex="1">
                    <mxGeometry x="294" y="340" width="80" height="40" as="geometry"/>
                </mxCell>
                <mxCell id="TLOZ-Fmwr8OnzwcKuDfj-52" value="Policy&lt;br style=&quot;font-size: 16px&quot;&gt;Gradient" style="text;html=1;align=right;verticalAlign=middle;resizable=0;points=[];autosize=1;strokeColor=none;fontSize=16;fontFamily=Times New Roman;fontStyle=0" parent="1" vertex="1">
                    <mxGeometry x="140" y="430" width="70" height="40" as="geometry"/>
                </mxCell>
                <mxCell id="TLOZ-Fmwr8OnzwcKuDfj-53" value="Reward" style="text;html=1;align=center;verticalAlign=middle;resizable=0;points=[];autosize=1;strokeColor=none;fontSize=16;fontFamily=Times New Roman;fontStyle=0" parent="1" vertex="1">
                    <mxGeometry x="403" y="480" width="70" height="20" as="geometry"/>
                </mxCell>
                <mxCell id="TLOZ-Fmwr8OnzwcKuDfj-54" value="Action" style="text;html=1;align=center;verticalAlign=middle;resizable=0;points=[];autosize=1;strokeColor=none;fontSize=16;fontFamily=Times New Roman;fontStyle=0" parent="1" vertex="1">
                    <mxGeometry x="280" y="460" width="60" height="20" as="geometry"/>
                </mxCell>
                <mxCell id="TLOZ-Fmwr8OnzwcKuDfj-87" value="States" style="text;html=1;align=center;verticalAlign=middle;resizable=0;points=[];autosize=1;strokeColor=none;fontSize=16;fontFamily=Times New Roman;" parent="1" vertex="1">
                    <mxGeometry x="405" y="518" width="50" height="20" as="geometry"/>
                </mxCell>
                <mxCell id="TLOZ-Fmwr8OnzwcKuDfj-94" value="" style="ellipse;fillColor=#000000;strokeColor=none;dashed=1;fontFamily=Times New Roman;fontSize=16;aspect=fixed;" parent="1" vertex="1">
                    <mxGeometry x="396" y="510" width="8" height="8" as="geometry"/>
                </mxCell>
                <mxCell id="17" value="Parameters" style="text;html=1;align=center;verticalAlign=middle;resizable=0;points=[];autosize=1;strokeColor=none;fontSize=16;fontFamily=Times New Roman;" vertex="1" parent="1">
                    <mxGeometry x="289" y="395" width="90" height="20" as="geometry"/>
                </mxCell>
                <mxCell id="18" value="" style="endArrow=classic;html=1;fontFamily=Times New Roman;fontSize=16;entryX=0;entryY=0.25;entryDx=0;entryDy=0;" edge="1" parent="1" target="TLOZ-Fmwr8OnzwcKuDfj-3">
                    <mxGeometry width="50" height="50" relative="1" as="geometry">
                        <mxPoint x="300" y="380" as="sourcePoint"/>
                        <mxPoint x="550" y="360" as="targetPoint"/>
                    </mxGeometry>
                </mxCell>
                <mxCell id="97" style="edgeStyle=none;html=1;exitX=0.5;exitY=1;exitDx=0;exitDy=0;entryX=1;entryY=0.25;entryDx=0;entryDy=0;fontFamily=Times New Roman;fontSize=16;rounded=0;" edge="1" parent="1" source="95" target="TLOZ-Fmwr8OnzwcKuDfj-27">
                    <mxGeometry relative="1" as="geometry">
                        <mxPoint x="290" y="485" as="targetPoint"/>
                        <Array as="points">
                            <mxPoint x="335" y="485"/>
                        </Array>
                    </mxGeometry>
                </mxCell>
                <mxCell id="95" value="" style="rounded=1;whiteSpace=wrap;html=1;fontFamily=Times New Roman;fontSize=16;fillColor=none;dashed=1;" vertex="1" parent="1">
                    <mxGeometry x="297.5" y="390" width="75" height="30" as="geometry"/>
                </mxCell>
            </root>
        </mxGraphModel>
    </diagram>
</mxfile>